<svg xmlns="http://www.w3.org/2000/svg" xmlns:xlink="http://www.w3.org/1999/xlink" width="1240" height="545.32" viewBox="0 0 1240 545.32">
  <defs>
    <clipPath id="clip-path">
      <path id="Rectangle_652" data-name="Rectangle 652" d="M1220.473,544.5H19.528C8.743,544.5,0,535.473,0,524.335V20.167C0,9.029,8.743,0,19.528,0H1220.473C1231.257,0,1240,9.029,1240,20.167V524.335C1240,535.473,1231.257,544.5,1220.473,544.5Z" transform="translate(0 0)" fill="none" opacity="0.238"/>
    </clipPath>
    <clipPath id="clip-path-2">
      <rect id="Rectángulo_34915" data-name="Rectángulo 34915" width="129" height="67.391" fill="#91b3fa" stroke="#707070" stroke-width="1"/>
    </clipPath>
    <clipPath id="clip-path-3">
      <rect id="Rectángulo_361780" data-name="Rectángulo 361780" width="129" height="67.391" fill="#4adbd1" stroke="#707070" stroke-width="1"/>
    </clipPath>
    <linearGradient id="linear-gradient" x1="7.465" y1="0.5" x2="6.465" y2="0.5" gradientUnits="objectBoundingBox">
      <stop offset="0" stop-color="#09005d"/>
      <stop offset="1" stop-color="#1a0f91"/>
    </linearGradient>
    <linearGradient id="linear-gradient-2" x1="2.963" y1="0.5" x2="1.963" y2="0.5" xlink:href="#linear-gradient"/>
    <linearGradient id="linear-gradient-3" x1="2.887" y1="0.5" x2="1.887" y2="0.5" xlink:href="#linear-gradient"/>
    <linearGradient id="linear-gradient-4" x1="1.538" y1="0.5" x2="0.538" y2="0.5" xlink:href="#linear-gradient"/>
    <linearGradient id="linear-gradient-5" x1="0.365" y1="0.5" x2="-0.635" y2="0.5" xlink:href="#linear-gradient"/>
    <linearGradient id="linear-gradient-6" x1="1.157" y1="0.5" x2="0.157" y2="0.5" xlink:href="#linear-gradient"/>
    <linearGradient id="linear-gradient-7" x1="3.783" y1="0.5" x2="2.783" y2="0.5" xlink:href="#linear-gradient"/>
    <linearGradient id="linear-gradient-8" x1="11.081" y1="0.5" x2="10.081" y2="0.5" xlink:href="#linear-gradient"/>
    <linearGradient id="linear-gradient-9" x1="89.925" y1="194.877" x2="88.925" y2="194.877" xlink:href="#linear-gradient"/>
    <linearGradient id="linear-gradient-10" x1="97.951" y1="204.32" x2="96.951" y2="204.32" xlink:href="#linear-gradient"/>
    <linearGradient id="linear-gradient-11" x1="95.508" y1="222.19" x2="94.508" y2="222.19" xlink:href="#linear-gradient"/>
    <linearGradient id="linear-gradient-12" x1="68.143" y1="0.5" x2="67.147" y2="0.5" xlink:href="#linear-gradient"/>
    <linearGradient id="linear-gradient-13" x1="29.251" y1="0.5" x2="28.255" y2="0.5" xlink:href="#linear-gradient"/>
    <linearGradient id="linear-gradient-14" x1="13.592" y1="0.5" x2="12.597" y2="0.5" xlink:href="#linear-gradient"/>
    <linearGradient id="linear-gradient-15" x1="-20.368" y1="0.5" x2="-21.364" y2="0.5" xlink:href="#linear-gradient"/>
    <linearGradient id="linear-gradient-16" x1="40.076" y1="0.5" x2="39.076" y2="0.5" xlink:href="#linear-gradient"/>
    <linearGradient id="linear-gradient-17" x1="28.882" y1="0.5" x2="27.882" y2="0.5" xlink:href="#linear-gradient"/>
    <linearGradient id="linear-gradient-18" x1="16.648" y1="0.499" x2="15.648" y2="0.499" xlink:href="#linear-gradient"/>
    <linearGradient id="linear-gradient-19" x1="-3.698" y1="0.499" x2="-4.698" y2="0.499" xlink:href="#linear-gradient"/>
  </defs>
  <g id="Grupo_1026040" data-name="Grupo 1026040" transform="translate(-180 -3267.732)">
    <path id="Trazado_730055" data-name="Trazado 730055" d="M23,0H1217c12.7,0,23,10.787,23,24.093V519.565c0,13.306-10.3,24.093-23,24.093H23c-12.7,0-23-10.787-23-24.093V24.093C0,10.787,10.3,0,23,0Z" transform="translate(180 3267.733)" fill="#f6f6f6"/>
    <g id="Grupo_80238" data-name="Grupo 80238" transform="translate(180 3268.551)" clip-path="url(#clip-path)">
      <g id="Grupo_80237" data-name="Grupo 80237" transform="translate(16 0)" clip-path="url(#clip-path-2)">
        <g id="Grupo_80236" data-name="Grupo 80236" transform="translate(3 -77.671)">
          <path id="Sustracción_11" data-name="Sustracción 11" d="M62.5,0A55.418,55.418,0,0,0,49.9,1.45,56.678,56.678,0,0,0,38.172,5.61a60.527,60.527,0,0,0-10.617,6.582,65.623,65.623,0,0,0-9.25,8.717,70.744,70.744,0,0,0-7.632,10.565A75.108,75.108,0,0,0,4.912,43.6,78.61,78.61,0,0,0,1.27,57a82.145,82.145,0,0,0,0,28.775,78.61,78.61,0,0,0,3.642,13.4A75.108,75.108,0,0,0,10.674,111.3a70.744,70.744,0,0,0,7.632,10.565,65.622,65.622,0,0,0,9.25,8.717,60.527,60.527,0,0,0,10.617,6.582,56.679,56.679,0,0,0,11.732,4.16,55.421,55.421,0,0,0,25.192,0,56.678,56.678,0,0,0,11.732-4.16,60.527,60.527,0,0,0,10.617-6.582,65.623,65.623,0,0,0,9.25-8.717,70.744,70.744,0,0,0,7.632-10.565,75.11,75.11,0,0,0,5.762-12.126,78.611,78.611,0,0,0,3.642-13.4,82.146,82.146,0,0,0,0-28.775,78.611,78.611,0,0,0-3.642-13.4,75.11,75.11,0,0,0-5.762-12.126,70.744,70.744,0,0,0-7.632-10.565,65.623,65.623,0,0,0-9.25-8.717A60.527,60.527,0,0,0,86.828,5.61,56.677,56.677,0,0,0,75.1,1.45,55.417,55.417,0,0,0,62.5,0Zm-.233,108.9a28.911,28.911,0,0,1-6.571-.757,29.567,29.567,0,0,1-6.121-2.17,31.578,31.578,0,0,1-5.539-3.434,34.235,34.235,0,0,1-4.826-4.548,36.9,36.9,0,0,1-3.981-5.512,39.183,39.183,0,0,1-3.006-6.326,41.008,41.008,0,0,1-1.9-6.991,42.855,42.855,0,0,1,0-15.012,41.01,41.01,0,0,1,1.9-6.991,39.184,39.184,0,0,1,3.006-6.326,36.9,36.9,0,0,1,3.981-5.512,34.234,34.234,0,0,1,4.826-4.548,31.576,31.576,0,0,1,5.539-3.434,29.567,29.567,0,0,1,6.121-2.17,28.913,28.913,0,0,1,13.142,0,29.566,29.566,0,0,1,6.12,2.17A31.577,31.577,0,0,1,80.5,40.772a34.235,34.235,0,0,1,4.826,4.548A36.906,36.906,0,0,1,89.3,50.832a39.184,39.184,0,0,1,3.006,6.326,41.007,41.007,0,0,1,1.9,6.991,42.854,42.854,0,0,1,0,15.012,41.006,41.006,0,0,1-1.9,6.991A39.185,39.185,0,0,1,89.3,92.478a36.906,36.906,0,0,1-3.982,5.512,34.237,34.237,0,0,1-4.826,4.548,31.578,31.578,0,0,1-5.539,3.434,29.566,29.566,0,0,1-6.12,2.17A28.911,28.911,0,0,1,62.267,108.9Z" fill="#91b3fa"/>
        </g>
      </g>
      <g id="Grupo_1025926" data-name="Grupo 1025926" transform="translate(1201 544.502) rotate(180)" clip-path="url(#clip-path-3)">
        <g id="Grupo_1025925" data-name="Grupo 1025925" transform="translate(3 -77.671)">
          <path id="Sustracción_12" data-name="Sustracción 12" d="M62.5,0A55.418,55.418,0,0,0,49.9,1.45,56.678,56.678,0,0,0,38.172,5.61a60.527,60.527,0,0,0-10.617,6.582,65.623,65.623,0,0,0-9.25,8.717,70.744,70.744,0,0,0-7.632,10.565A75.108,75.108,0,0,0,4.912,43.6,78.61,78.61,0,0,0,1.27,57a82.145,82.145,0,0,0,0,28.775,78.61,78.61,0,0,0,3.642,13.4A75.108,75.108,0,0,0,10.674,111.3a70.744,70.744,0,0,0,7.632,10.565,65.622,65.622,0,0,0,9.25,8.717,60.527,60.527,0,0,0,10.617,6.582,56.679,56.679,0,0,0,11.732,4.16,55.421,55.421,0,0,0,25.192,0,56.678,56.678,0,0,0,11.732-4.16,60.527,60.527,0,0,0,10.617-6.582,65.623,65.623,0,0,0,9.25-8.717,70.744,70.744,0,0,0,7.632-10.565,75.11,75.11,0,0,0,5.762-12.126,78.611,78.611,0,0,0,3.642-13.4,82.146,82.146,0,0,0,0-28.775,78.611,78.611,0,0,0-3.642-13.4,75.11,75.11,0,0,0-5.762-12.126,70.744,70.744,0,0,0-7.632-10.565,65.623,65.623,0,0,0-9.25-8.717A60.527,60.527,0,0,0,86.828,5.61,56.677,56.677,0,0,0,75.1,1.45,55.417,55.417,0,0,0,62.5,0Zm-.233,108.9a28.911,28.911,0,0,1-6.571-.757,29.567,29.567,0,0,1-6.121-2.17,31.578,31.578,0,0,1-5.539-3.434,34.235,34.235,0,0,1-4.826-4.548,36.9,36.9,0,0,1-3.981-5.512,39.183,39.183,0,0,1-3.006-6.326,41.008,41.008,0,0,1-1.9-6.991,42.855,42.855,0,0,1,0-15.012,41.01,41.01,0,0,1,1.9-6.991,39.184,39.184,0,0,1,3.006-6.326,36.9,36.9,0,0,1,3.981-5.512,34.234,34.234,0,0,1,4.826-4.548,31.576,31.576,0,0,1,5.539-3.434,29.567,29.567,0,0,1,6.121-2.17,28.913,28.913,0,0,1,13.142,0,29.566,29.566,0,0,1,6.12,2.17A31.577,31.577,0,0,1,80.5,40.772a34.235,34.235,0,0,1,4.826,4.548A36.906,36.906,0,0,1,89.3,50.832a39.184,39.184,0,0,1,3.006,6.326,41.007,41.007,0,0,1,1.9,6.991,42.854,42.854,0,0,1,0,15.012,41.006,41.006,0,0,1-1.9,6.991A39.185,39.185,0,0,1,89.3,92.478a36.906,36.906,0,0,1-3.982,5.512,34.237,34.237,0,0,1-4.826,4.548,31.578,31.578,0,0,1-5.539,3.434,29.566,29.566,0,0,1-6.12,2.17A28.911,28.911,0,0,1,62.267,108.9Z" fill="#4adbd1"/>
        </g>
      </g>
      <path id="Trazado_151751" data-name="Trazado 151751" d="M1377.813,547.063l-92.434-334.121,38.365-157.616L1113.389-62.232c-3.028,3.585-5.853,7.414-9.124,10.715-24.5,24.723-47.667,51.435-73.943,73.548-52.1,43.836-107.884,54-164.76,30.794q-29.691-12.116-58.48-26.3C771.567,8.974,734.238-.55,692.843,4.363c-25.909,3.074-49.161,13.01-69.979,32.3-31.159,28.866-53.7,65.266-78.837,99.448-13.322,18.113-26.9,36.164-41.646,52.942-30.328,34.5-65.884,51.515-108.378,49.8-45.711-1.844-83.222-16.442-108.79-56.739-21.336-33.626-42.981-67.162-66.8-98.612C179.868,32.593,126.862,17.7,63.779,34.92,41.2,41.082,19.185,51.364-3.09,59.764L113.395,460.547Z" transform="matrix(0.891, -0.454, 0.454, 0.891, 217.578, 506.6)" fill="none" stroke="#fff" stroke-width="1" opacity="0.81"/>
      <g id="Grupo_1020679" data-name="Grupo 1020679" transform="translate(-16.569 -44.401)" opacity="0.1">
        <path id="Trazado_117938" data-name="Trazado 117938" d="M1415.807,126.5a.358.358,0,0,0,.115,0,.134.134,0,0,0,.089-.087.349.349,0,0,0,0-.087.28.28,0,0,0,0-.175c.076-1.18-.42-6.585-3.617-33.214-2.114-17.569-5.094-42.013-8.991-72.678-6.546-52.2-13.308-105-13.372-105.543a.324.324,0,0,0-.191-.248.3.3,0,0,0-.306,0L1272.218,1.505a.3.3,0,0,0-.128.233.389.389,0,0,0,.1.248L1415.03,125.957l-231.92,27.067v.612l231.538-27.008c-2.2,1.7-8.38,7.182-26.591,23.818-15.282,13.927-36.932,33.87-64.453,59.319-50.533,46.689-109.841,101.77-140.685,130.439l.42.452C1325.858,208.22,1412.636,128.273,1415.807,126.5ZM1389.534-84.735c8.915,69.925,25.47,200.291,25.954,210.24L1272.957,1.753Z" transform="translate(-1182.919 214.198)" fill="url(#linear-gradient)"/>
        <path id="Trazado_117939" data-name="Trazado 117939" d="M1028.975,229.843a.249.249,0,0,0,.14-.233l12.149-241.459,186.4,77.82a.348.348,0,0,0,.242,0,.28.28,0,0,0,.166-.16L1275.769-44.9a.33.33,0,0,0,0-.249.267.267,0,0,0-.167-.159l-133.4-56.173-36.614-72.387-.56.277,36.665,72.489a.267.267,0,0,0,.153.146L1275.056-44.8,1227.63,65.287,1041.1-12.592a.329.329,0,0,0-.344,0L845.512,166.285a.317.317,0,0,0-.084.3.272.272,0,0,0,.2.214l183.068,63.092h.115a.252.252,0,0,0,.166-.044Zm11.653-241.415-12.111,240.73-182.2-62.772Z" transform="translate(-612.879 173.87)" fill="url(#linear-gradient-2)"/>
        <path id="Trazado_117940" data-name="Trazado 117940" d="M1036.733,286.654h0l296.589-89.795a.266.266,0,0,0,.176-.13.342.342,0,0,0,.041-.235l-40.8-205.87a.3.3,0,0,0-.2-.233.328.328,0,0,0-.306,0L1093.239,154.307a.2.2,0,0,0-.089.117l-56.557,131.269L910.617,91.331a.314.314,0,0,0-.306-.146.318.318,0,0,0-.255.233l-59.231,233.84.611.146L910.515,92.263,1036.2,286.2,930.726,325.055l.217.568ZM1292.226-8.7l40.752,205.1-295.735,89.518L1093.748,154.8Z" transform="translate(-677.513 248.882)" fill="url(#linear-gradient-3)"/>
        <path id="Trazado_117941" data-name="Trazado 117941" d="M782.475,88.643l171.988-29.4a.315.315,0,0,0,.229-.16.311.311,0,0,0,0-.277L870.7-109.623a.325.325,0,0,0-.191-.16.348.348,0,0,0-.242,0L622.6,36.156a.347.347,0,0,0-.153.306.334.334,0,0,0,.216.262l159.661,51.9h.153ZM870.347-109.04,953.941,58.706,782.449,88.031,623.515,36.345Z" transform="translate(-7.847 203.133)" fill="url(#linear-gradient-4)"/>
        <path id="Trazado_117942" data-name="Trazado 117942" d="M597.221,296.079l273.143-38.808v-.16l.242.117a.306.306,0,0,0,.331,0,.311.311,0,0,0,.115-.32L769.35-158.825a.326.326,0,0,0-.369-.233l-335.406,71.7a.345.345,0,0,0-.229.175l-88.1,197.712.573.248L433.855-86.788l334.934-71.6,101.474,414.77L517.856,81.163a.3.3,0,0,0-.344,0,.283.283,0,0,0-.089.335L596.89,295.846a.316.316,0,0,0,.293.2Zm272.4-39.333L597.387,295.424l-79.1-213.358Z" transform="translate(428.836 180.633)" fill="url(#linear-gradient-5)"/>
        <path id="Trazado_117943" data-name="Trazado 117943" d="M822.041,261.43l-.42-.452,108.249-97.749L561,132.375l119.8,128.2-.458.422L559.99,132.215a.325.325,0,0,1,0-.35.332.332,0,0,1,.305-.175l370.351,31.044a.306.306,0,0,1,.28.2.3.3,0,0,1-.089.32Z" transform="translate(95.539 313.439)" fill="url(#linear-gradient-6)"/>
        <path id="Trazado_117944" data-name="Trazado 117944" d="M1035.913,274.064l-.573-.248L1090.228,145.4,850.807,103.492l.115-.612,239.752,41.984a.339.339,0,0,1,.216.146.345.345,0,0,1,0,.277Z" transform="translate(-434.865 300.28)" fill="url(#linear-gradient-7)"/>
        <path id="Trazado_117945" data-name="Trazado 117945" d="M1103.631,232.9l-92.011-38.983.255-.568,92,38.983Z" transform="translate(-652.617 341.603)" fill="url(#linear-gradient-8)"/>
        <g id="Grupo_54547" data-name="Grupo 54547" transform="translate(497.753 399.897)">
          <ellipse id="Elipse_4152" data-name="Elipse 4152" cx="23.827" cy="23.454" rx="23.827" ry="23.454" transform="translate(0 0)" opacity="0.51" fill="url(#linear-gradient-9)"/>
        </g>
        <g id="Grupo_54548" data-name="Grupo 54548" transform="translate(81.39 433.227)">
          <ellipse id="Elipse_4153" data-name="Elipse 4153" cx="23.827" cy="23.454" rx="23.827" ry="23.454" transform="translate(0 0)" opacity="0.31" fill="url(#linear-gradient-10)"/>
        </g>
        <g id="Grupo_54549" data-name="Grupo 54549" transform="translate(1013.246 456.681)">
          <ellipse id="Elipse_4154" data-name="Elipse 4154" cx="19.434" cy="19.127" rx="19.434" ry="19.127" opacity="0.55" fill="url(#linear-gradient-11)"/>
        </g>
        <path id="Trazado_117946" data-name="Trazado 117946" d="M1085.5,203.177a7.461,7.461,0,1,1,7.641-7.459A7.513,7.513,0,0,1,1085.5,203.177Z" transform="translate(-726.316 339.278)" fill="url(#linear-gradient-12)"/>
        <path id="Trazado_117947" data-name="Trazado 117947" d="M853.211,141.747a7.461,7.461,0,1,1,0-14.917,7.46,7.46,0,1,1,0,14.917Z" transform="translate(-198.065 311.219)" fill="url(#linear-gradient-13)"/>
        <path id="Trazado_117948" data-name="Trazado 117948" d="M759.577,35.837a7.461,7.461,0,1,1,7.641-7.459A7.513,7.513,0,0,1,759.577,35.837Z" transform="translate(14.668 262.843)" fill="url(#linear-gradient-14)"/>
        <path id="Trazado_117949" data-name="Trazado 117949" d="M556.648,162.927a7.461,7.461,0,1,1,7.641-7.459A7.521,7.521,0,0,1,556.648,162.927Z" transform="translate(476.032 320.894)" fill="url(#linear-gradient-15)"/>
        <path id="Trazado_117950" data-name="Trazado 117950" d="M1186.391,80.989a16.027,16.027,0,1,1,16.3-16.024A16.169,16.169,0,0,1,1186.391,80.989Z" transform="translate(-953.249 275.642)" fill="url(#linear-gradient-16)"/>
        <ellipse id="Elipse_4155" data-name="Elipse 4155" cx="16.301" cy="16.039" rx="16.301" ry="16.039" transform="translate(399.31 387.5)" fill="url(#linear-gradient-17)"/>
        <path id="Trazado_117951" data-name="Trazado 117951" d="M886.5,11.519A16.169,16.169,0,0,1,870.2-4.506,16.169,16.169,0,0,1,886.5-20.53,16.169,16.169,0,0,1,902.8-4.506,16.226,16.226,0,0,1,886.5,11.519Z" transform="translate(-271.445 243.91)" fill="url(#linear-gradient-18)"/>
        <path id="Trazado_117952" data-name="Trazado 117952" d="M626.074,27.619A16.189,16.189,0,0,1,609.76,11.594a16.31,16.31,0,0,1,32.615,0A16.169,16.169,0,0,1,626.074,27.619Z" transform="translate(320.657 251.264)" fill="url(#linear-gradient-19)"/>
      </g>
    </g>
  </g>
</svg>
