<svg id="Grupo_1025921" data-name="Grupo 1025921" xmlns="http://www.w3.org/2000/svg" xmlns:xlink="http://www.w3.org/1999/xlink" width="267.845" height="292.651" viewBox="0 0 267.845 292.651">
  <defs>
    <clipPath id="clip-path">
      <rect id="Rectángulo_344595" data-name="Rectángulo 344595" width="267.845" height="292.651" fill="none"/>
    </clipPath>
    <clipPath id="clip-path-3">
      <rect id="Rectángulo_344573" data-name="Rectángulo 344573" width="32.678" height="20.868" fill="none"/>
    </clipPath>
    <clipPath id="clip-path-4">
      <rect id="Rectángulo_344574" data-name="Rectángulo 344574" width="18.777" height="12.705" fill="none"/>
    </clipPath>
    <clipPath id="clip-path-5">
      <rect id="Rectángulo_344575" data-name="Rectángulo 344575" width="19.132" height="12.81" fill="none"/>
    </clipPath>
    <clipPath id="clip-path-6">
      <rect id="Rectángulo_344576" data-name="Rectángulo 344576" width="44.113" height="27.765" fill="none"/>
    </clipPath>
    <clipPath id="clip-path-7">
      <rect id="Rectángulo_344577" data-name="Rectángulo 344577" width="114.649" height="67.619" fill="none"/>
    </clipPath>
    <clipPath id="clip-path-8">
      <rect id="Rectángulo_344578" data-name="Rectángulo 344578" width="15.533" height="10.771" fill="none"/>
    </clipPath>
    <clipPath id="clip-path-10">
      <rect id="Rectángulo_344582" data-name="Rectángulo 344582" width="8.734" height="11.279" fill="none"/>
    </clipPath>
    <clipPath id="clip-path-11">
      <rect id="Rectángulo_344583" data-name="Rectángulo 344583" width="77.881" height="55.608" fill="none"/>
    </clipPath>
    <clipPath id="clip-path-12">
      <rect id="Rectángulo_344584" data-name="Rectángulo 344584" width="70.603" height="71.368" fill="none"/>
    </clipPath>
    <clipPath id="clip-path-13">
      <rect id="Rectángulo_344590" data-name="Rectángulo 344590" width="139.75" height="62.517" fill="none"/>
    </clipPath>
    <clipPath id="clip-path-15">
      <rect id="Rectángulo_344586" data-name="Rectángulo 344586" width="8.734" height="11.278" fill="none"/>
    </clipPath>
    <clipPath id="clip-path-19">
      <rect id="Rectángulo_344591" data-name="Rectángulo 344591" width="14.557" height="14.768" fill="none"/>
    </clipPath>
    <clipPath id="clip-path-20">
      <rect id="Rectángulo_344592" data-name="Rectángulo 344592" width="14.558" height="14.768" fill="none"/>
    </clipPath>
    <clipPath id="clip-path-21">
      <rect id="Rectángulo_344593" data-name="Rectángulo 344593" width="14.557" height="14.769" fill="none"/>
    </clipPath>
  </defs>
  <g id="Grupo_985888" data-name="Grupo 985888" transform="translate(0 0)" clip-path="url(#clip-path)">
    <g id="Grupo_985887" data-name="Grupo 985887">
      <g id="Grupo_985886" data-name="Grupo 985886" clip-path="url(#clip-path)">
        <path id="Trazado_659067" data-name="Trazado 659067" d="M64.234,5.416a1.631,1.631,0,0,1,.064-.357.084.084,0,0,1,.013-.077,1.343,1.343,0,0,1,.089-.344,1.756,1.756,0,0,1,.229-.5.7.7,0,0,1,.128-.2.6.6,0,0,1,.114-.141,1.185,1.185,0,0,1,.255-.254l.025-.026a1.747,1.747,0,0,1,.332-.191,2.822,2.822,0,0,1,2.613.331L265.674,117.42a8.607,8.607,0,0,1,3.887,6.73V266.075c0,.011,0,.022,0,.032v.849a2.659,2.659,0,0,1-1.4,2.35c-.056.037-.108.058-.161.1s-.128.076-.2.115a1.433,1.433,0,0,1-.332.115,2.2,2.2,0,0,1-.5.064,2.5,2.5,0,0,1-1.287-.37l-.1-.058-.008,0-3.7-2.139L68.1,155.5a8.585,8.585,0,0,1-3.887-6.729V5.9c0-.166.013-.331.025-.484" transform="translate(-6.682 -0.326)" fill="#fff"/>
        <path id="Trazado_659068" data-name="Trazado 659068" d="M65.631,3a2.82,2.82,0,0,1,2.613.331L265.823,117.093a8.608,8.608,0,0,1,3.887,6.73v12.7l4.958-2.906V121.006a8.571,8.571,0,0,0-3.875-6.718L73.2.526A2.7,2.7,0,0,0,70.386.3c-.7.421-3.926,2.269-4.755,2.7" transform="translate(-6.83 0)" fill="#d2e1f1"/>
        <path id="Trazado_659069" data-name="Trazado 659069" d="M64.218,5.874c.015-2.453,1.745-3.445,3.88-2.212L265.677,117.423a8.581,8.581,0,0,1,3.883,6.725l0,12.7L64.218,18.618Z" transform="translate(-6.683 -0.326)" fill="#12263f"/>
        <path id="Trazado_659072" data-name="Trazado 659072" d="M89.594,22.231c1.211.7,2.194,2.778,2.194,4.644s-.983,2.811-2.194,2.112S87.4,26.208,87.4,24.343s.982-2.811,2.194-2.112" transform="translate(-9.095 -2.289)" fill="#fafafa"/>
        <path id="Trazado_659073" data-name="Trazado 659073" d="M80.778,17.131c1.212.7,2.194,2.779,2.194,4.645s-.982,2.811-2.194,2.111-2.194-2.778-2.194-4.645.983-2.811,2.194-2.111" transform="translate(-8.178 -1.759)" fill="#fafafa"/>
        <path id="Trazado_659074" data-name="Trazado 659074" d="M71.961,12.031c1.212.7,2.194,2.779,2.194,4.645s-.982,2.811-2.194,2.112-2.194-2.779-2.194-4.645.983-2.811,2.194-2.111" transform="translate(-7.26 -1.228)" fill="#fafafa"/>
        <path id="Trazado_659075" data-name="Trazado 659075" d="M291.838,284.5l.213-.12,4.1-2.362a4.116,4.116,0,0,0,2.028-3.01,4.3,4.3,0,0,0,.038-.566V149.132l-4.964,2.91v130.1a2.646,2.646,0,0,1-1.239,2.247c-.115.068-.174.108-.174.108" transform="translate(-30.37 -15.519)" fill="#37474f"/>
        <path id="Trazado_659076" data-name="Trazado 659076" d="M260.189,145.209l-56.817-32.995c-.762-.44-1.381-.127-1.381.7a2.958,2.958,0,0,0,1.381,2.291l56.817,33c.762.44,1.381.127,1.381-.7a2.961,2.961,0,0,0-1.381-2.291" transform="translate(-21.02 -11.657)" fill="#12263f"/>
        <path id="Trazado_659077" data-name="Trazado 659077" d="M232.533,169.867,79.457,80.986c-.762-.441-1.38-.128-1.38.7a2.957,2.957,0,0,0,1.38,2.291l153.076,88.882c.762.44,1.38.127,1.38-.7a2.957,2.957,0,0,0-1.38-2.291" transform="translate(-8.125 -8.407)" fill="#27debf"/>
        <path id="Trazado_659078" data-name="Trazado 659078" d="M232.533,181.411,79.457,92.53c-.762-.439-1.38-.128-1.38.7a2.956,2.956,0,0,0,1.38,2.291L232.533,184.4c.762.44,1.38.127,1.38-.7a2.959,2.959,0,0,0-1.38-2.292" transform="translate(-8.125 -9.608)" fill="#27debf"/>
        <path id="Trazado_659079" data-name="Trazado 659079" d="M185.032,101.632,78.519,40.217c-.762-.44-1.38-.127-1.38.7a2.96,2.96,0,0,0,1.38,2.292l106.513,61.415c.762.441,1.38.128,1.38-.7a2.957,2.957,0,0,0-1.38-2.291" transform="translate(-8.027 -4.164)" fill="#12263f"/>
        <path id="Trazado_659080" data-name="Trazado 659080" d="M263.314,156.593,233.4,139.113c-.762-.44-1.38-.127-1.38.7a2.96,2.96,0,0,0,1.38,2.292l29.918,17.481c.762.439,1.381.127,1.381-.7a2.961,2.961,0,0,0-1.381-2.291" transform="translate(-24.144 -14.456)" fill="#27debf"/>
        <g id="Grupo_985825" data-name="Grupo 985825" transform="translate(207.872 124.458)" opacity="0.6">
          <g id="Grupo_985824" data-name="Grupo 985824">
            <g id="Grupo_985823" data-name="Grupo 985823" clip-path="url(#clip-path-3)">
              <path id="Trazado_659081" data-name="Trazado 659081" d="M263.314,156.593,233.4,139.113c-.762-.44-1.38-.127-1.38.7a2.96,2.96,0,0,0,1.38,2.292l29.918,17.481c.762.439,1.381.127,1.381-.7a2.961,2.961,0,0,0-1.381-2.291" transform="translate(-232.016 -138.914)" fill="#fff"/>
            </g>
          </g>
        </g>
        <path id="Trazado_659082" data-name="Trazado 659082" d="M264.928,167.07l-16.018-9.318c-.762-.44-1.38-.127-1.38.7a2.96,2.96,0,0,0,1.38,2.291l16.018,9.318c.762.44,1.381.128,1.381-.7a2.961,2.961,0,0,0-1.381-2.291" transform="translate(-25.759 -16.396)" fill="#27debf"/>
        <g id="Grupo_985828" data-name="Grupo 985828" transform="translate(221.773 141.157)" opacity="0.6">
          <g id="Grupo_985827" data-name="Grupo 985827">
            <g id="Grupo_985826" data-name="Grupo 985826" clip-path="url(#clip-path-4)">
              <path id="Trazado_659083" data-name="Trazado 659083" d="M264.928,167.07l-16.018-9.318c-.762-.44-1.38-.127-1.38.7a2.96,2.96,0,0,0,1.38,2.291l16.018,9.318c.762.44,1.381.128,1.381-.7a2.961,2.961,0,0,0-1.381-2.291" transform="translate(-247.532 -157.553)" fill="#fff"/>
            </g>
          </g>
        </g>
        <path id="Trazado_659084" data-name="Trazado 659084" d="M225.525,134.571l-16.372-9.423c-.762-.44-1.38-.127-1.38.7a2.96,2.96,0,0,0,1.38,2.292l16.372,9.422c.762.44,1.38.128,1.38-.7a2.96,2.96,0,0,0-1.38-2.291" transform="translate(-21.622 -13.003)" fill="#27debf"/>
        <g id="Grupo_985831" data-name="Grupo 985831" transform="translate(186.151 111.947)" opacity="0.6">
          <g id="Grupo_985830" data-name="Grupo 985830">
            <g id="Grupo_985829" data-name="Grupo 985829" clip-path="url(#clip-path-5)">
              <path id="Trazado_659085" data-name="Trazado 659085" d="M225.525,134.571l-16.372-9.423c-.762-.44-1.38-.127-1.38.7a2.96,2.96,0,0,0,1.38,2.292l16.372,9.422c.762.44,1.38.128,1.38-.7a2.96,2.96,0,0,0-1.38-2.291" transform="translate(-207.773 -124.95)" fill="#fff"/>
            </g>
          </g>
        </g>
        <path id="Trazado_659086" data-name="Trazado 659086" d="M181.72,174.24l-103.2-59.488c-.762-.44-1.38-.127-1.38.7a2.958,2.958,0,0,0,1.38,2.292l103.2,59.488c.762.44,1.38.127,1.38-.7a2.96,2.96,0,0,0-1.38-2.291" transform="translate(-8.027 -11.921)" fill="#fff"/>
        <path id="Trazado_659087" data-name="Trazado 659087" d="M179.714,163.592,78.518,105.18c-.762-.44-1.38-.128-1.38.7a2.96,2.96,0,0,0,1.38,2.291l101.2,58.413c.762.44,1.38.127,1.38-.7a2.958,2.958,0,0,0-1.38-2.292" transform="translate(-8.027 -10.925)" fill="#fff"/>
        <path id="Trazado_659088" data-name="Trazado 659088" d="M234.764,195.723l-37.327-21.9c-.762-.44-1.38-.127-1.38.7a2.96,2.96,0,0,0,1.38,2.291l37.327,21.9c.762.44,1.38.127,1.38-.7a2.96,2.96,0,0,0-1.38-2.292" transform="translate(-20.402 -18.068)" fill="#fff"/>
        <path id="Trazado_659089" data-name="Trazado 659089" d="M228.506,145.955,116.377,81.02c-.762-.441-1.38-.128-1.38.7a2.962,2.962,0,0,0,1.38,2.292l112.129,64.937c.762.438,1.38.127,1.38-.7a2.959,2.959,0,0,0-1.38-2.292" transform="translate(-11.967 -8.41)" fill="#ebebeb"/>
        <path id="Trazado_659090" data-name="Trazado 659090" d="M106.492,75.4,79.427,60.156c-.762-.439-1.38-.127-1.38.7a2.957,2.957,0,0,0,1.38,2.291l27.065,15.241c.762.44,1.38.127,1.38-.7a2.957,2.957,0,0,0-1.38-2.291" transform="translate(-8.122 -6.239)" fill="#ebebeb"/>
        <path id="Trazado_659091" data-name="Trazado 659091" d="M251.634,169.9l-41.354-24.377c-.762-.441-1.38-.127-1.38.7a2.957,2.957,0,0,0,1.38,2.291l41.354,24.378c.762.439,1.38.127,1.38-.7a2.96,2.96,0,0,0-1.38-2.291" transform="translate(-21.739 -15.123)" fill="#27debf"/>
        <g id="Grupo_985834" data-name="Grupo 985834" transform="translate(187.162 130.202)" opacity="0.6">
          <g id="Grupo_985833" data-name="Grupo 985833">
            <g id="Grupo_985832" data-name="Grupo 985832" clip-path="url(#clip-path-6)">
              <path id="Trazado_659092" data-name="Trazado 659092" d="M251.634,169.9l-41.354-24.377c-.762-.441-1.38-.127-1.38.7a2.957,2.957,0,0,0,1.38,2.291l41.354,24.378c.762.439,1.38.127,1.38-.7a2.96,2.96,0,0,0-1.38-2.291" transform="translate(-208.901 -145.325)" fill="#fff"/>
            </g>
          </g>
        </g>
        <path id="Trazado_659093" data-name="Trazado 659093" d="M191.316,134.616,79.427,70.385c-.762-.44-1.38-.127-1.38.7a2.96,2.96,0,0,0,1.38,2.291l111.889,64.231c.762.441,1.38.128,1.38-.7a2.96,2.96,0,0,0-1.38-2.291" transform="translate(-8.122 -7.304)" fill="#27debf"/>
        <g id="Grupo_985837" data-name="Grupo 985837" transform="translate(69.925 62.882)" opacity="0.6">
          <g id="Grupo_985836" data-name="Grupo 985836">
            <g id="Grupo_985835" data-name="Grupo 985835" clip-path="url(#clip-path-7)">
              <path id="Trazado_659094" data-name="Trazado 659094" d="M191.316,134.616,79.427,70.385c-.762-.44-1.38-.127-1.38.7a2.96,2.96,0,0,0,1.38,2.291l111.889,64.231c.762.441,1.38.128,1.38-.7a2.96,2.96,0,0,0-1.38-2.291" transform="translate(-78.047 -70.186)" fill="#fff"/>
            </g>
          </g>
        </g>
        <path id="Trazado_659095" data-name="Trazado 659095" d="M237.923,216.954l-159.4-92.322c-.762-.44-1.38-.127-1.38.7a2.963,2.963,0,0,0,1.38,2.292l159.4,92.321c.762.44,1.38.128,1.38-.7a2.96,2.96,0,0,0-1.38-2.291" transform="translate(-8.027 -12.949)" fill="#ebebeb"/>
        <path id="Trazado_659096" data-name="Trazado 659096" d="M237.923,226.5,78.518,134.18c-.762-.44-1.38-.127-1.38.7a2.96,2.96,0,0,0,1.38,2.292l159.4,92.321c.762.441,1.38.128,1.38-.7a2.96,2.96,0,0,0-1.38-2.291" transform="translate(-8.027 -13.943)" fill="#ebebeb"/>
        <path id="Trazado_659097" data-name="Trazado 659097" d="M237.923,236.05l-159.4-92.322c-.762-.44-1.38-.127-1.38.7a2.96,2.96,0,0,0,1.38,2.292l159.4,92.321c.762.44,1.38.128,1.38-.7a2.96,2.96,0,0,0-1.38-2.291" transform="translate(-8.027 -14.936)" fill="#ebebeb"/>
        <path id="Trazado_659098" data-name="Trazado 659098" d="M238.377,248.821l-40.466-23.569c-.762-.44-1.38-.127-1.38.7a2.96,2.96,0,0,0,1.38,2.291l40.466,23.57c.762.44,1.38.127,1.38-.7a2.958,2.958,0,0,0-1.38-2.292" transform="translate(-20.452 -23.42)" fill="#27debf"/>
        <path id="Trazado_659099" data-name="Trazado 659099" d="M180.138,214.9,78.519,156.424c-.762-.44-1.38-.127-1.38.7a2.96,2.96,0,0,0,1.38,2.291l101.62,58.476c.762.44,1.38.127,1.38-.7a2.96,2.96,0,0,0-1.38-2.291" transform="translate(-8.027 -16.257)" fill="#27debf"/>
        <path id="Trazado_659100" data-name="Trazado 659100" d="M263.93,263.48,251.157,256.1c-.762-.44-1.38-.127-1.38.7a2.96,2.96,0,0,0,1.38,2.292l12.773,7.383c.762.44,1.38.127,1.38-.7a2.96,2.96,0,0,0-1.38-2.291" transform="translate(-25.993 -26.63)" fill="#27debf"/>
        <g id="Grupo_985840" data-name="Grupo 985840" transform="translate(223.784 229.268)" opacity="0.6">
          <g id="Grupo_985839" data-name="Grupo 985839">
            <g id="Grupo_985838" data-name="Grupo 985838" clip-path="url(#clip-path-8)">
              <path id="Trazado_659101" data-name="Trazado 659101" d="M263.93,263.48,251.157,256.1c-.762-.44-1.38-.127-1.38.7a2.96,2.96,0,0,0,1.38,2.292l12.773,7.383c.762.44,1.38.127,1.38-.7a2.96,2.96,0,0,0-1.38-2.291" transform="translate(-249.777 -255.898)" fill="#fff"/>
            </g>
          </g>
        </g>
        <path id="Trazado_659102" data-name="Trazado 659102" d="M263.93,272.113l-12.773-7.383c-.762-.44-1.38-.127-1.38.7a2.96,2.96,0,0,0,1.38,2.292L263.93,275.1c.762.441,1.38.128,1.38-.7a2.96,2.96,0,0,0-1.38-2.291" transform="translate(-25.993 -27.528)" fill="#27debf"/>
        <g id="Grupo_985843" data-name="Grupo 985843" transform="translate(223.784 237.003)" opacity="0.6">
          <g id="Grupo_985842" data-name="Grupo 985842">
            <g id="Grupo_985841" data-name="Grupo 985841" clip-path="url(#clip-path-8)">
              <path id="Trazado_659103" data-name="Trazado 659103" d="M263.93,272.113l-12.773-7.383c-.762-.44-1.38-.127-1.38.7a2.96,2.96,0,0,0,1.38,2.292L263.93,275.1c.762.441,1.38.128,1.38-.7a2.96,2.96,0,0,0-1.38-2.291" transform="translate(-249.777 -264.531)" fill="#fff"/>
            </g>
          </g>
        </g>
        <path id="Trazado_659104" data-name="Trazado 659104" d="M225.912,249.854,78.519,164.814c-.762-.44-1.38-.127-1.38.7a2.96,2.96,0,0,0,1.38,2.291l147.393,85.041c.762.44,1.38.127,1.38-.7a2.96,2.96,0,0,0-1.38-2.292" transform="translate(-8.027 -17.13)" fill="#fff"/>
        <path id="Trazado_659105" data-name="Trazado 659105" d="M282.974,278.347l-7.507-4.335c-.753-.435-1.364-.082-1.364.788v2.76a3.012,3.012,0,0,0,1.364,2.362l7.506,4.335c.753.435,1.364.082,1.364-.788v-2.76a3.015,3.015,0,0,0-1.364-2.362" transform="translate(-28.524 -28.495)" fill="#e0e0e0"/>
        <path id="Trazado_659106" data-name="Trazado 659106" d="M282.974,241.594l-7.507-4.335c-.753-.435-1.364-.082-1.364.788v2.759a3.012,3.012,0,0,0,1.364,2.362l7.506,4.335c.753.435,1.364.082,1.364-.788v-2.759a3.016,3.016,0,0,0-1.364-2.362" transform="translate(-28.524 -24.671)" fill="#e0e0e0"/>
        <path id="Trazado_659107" data-name="Trazado 659107" d="M282.974,253.851l-7.507-4.335c-.753-.434-1.364-.082-1.364.788v2.759a3.012,3.012,0,0,0,1.364,2.362l7.506,4.334c.753.435,1.364.082,1.364-.787v-2.76a3.014,3.014,0,0,0-1.364-2.362" transform="translate(-28.524 -25.946)" fill="#e0e0e0"/>
        <path id="Trazado_659108" data-name="Trazado 659108" d="M282.974,266.108l-7.507-4.335c-.753-.435-1.364-.082-1.364.788v2.759a3.013,3.013,0,0,0,1.364,2.362l7.506,4.334c.753.435,1.364.082,1.364-.787V268.47a3.014,3.014,0,0,0-1.364-2.362" transform="translate(-28.524 -27.222)" fill="#e0e0e0"/>
        <path id="Trazado_659109" data-name="Trazado 659109" d="M282.974,204.84l-7.507-4.335c-.753-.435-1.364-.082-1.364.788v2.759a3.012,3.012,0,0,0,1.364,2.362l7.506,4.335c.753.435,1.364.081,1.364-.788V207.2a3.016,3.016,0,0,0-1.364-2.362" transform="translate(-28.524 -20.846)" fill="#e0e0e0"/>
        <path id="Trazado_659110" data-name="Trazado 659110" d="M282.974,217.1l-7.507-4.335c-.753-.435-1.364-.082-1.364.788v2.76a3.012,3.012,0,0,0,1.364,2.362l7.506,4.334c.753.435,1.364.082,1.364-.787v-2.76a3.014,3.014,0,0,0-1.364-2.362" transform="translate(-28.524 -22.122)" fill="#e0e0e0"/>
        <path id="Trazado_659111" data-name="Trazado 659111" d="M282.974,229.355l-7.507-4.335c-.753-.435-1.364-.082-1.364.787v2.759a3.013,3.013,0,0,0,1.364,2.362l7.506,4.334c.753.435,1.364.082,1.364-.787v-2.759a3.014,3.014,0,0,0-1.364-2.362" transform="translate(-28.524 -23.397)" fill="#e0e0e0"/>
        <path id="Trazado_659112" data-name="Trazado 659112" d="M282.974,168.087l-7.507-4.335c-.753-.435-1.364-.082-1.364.788V167.3a3.012,3.012,0,0,0,1.364,2.362L282.973,174c.753.435,1.364.082,1.364-.788v-2.76a3.016,3.016,0,0,0-1.364-2.362" transform="translate(-28.524 -17.021)" fill="#e0e0e0"/>
        <path id="Trazado_659113" data-name="Trazado 659113" d="M282.974,180.345l-7.507-4.335c-.753-.435-1.364-.082-1.364.788v2.759a3.012,3.012,0,0,0,1.364,2.362l7.506,4.334c.753.435,1.364.082,1.364-.787v-2.759a3.014,3.014,0,0,0-1.364-2.362" transform="translate(-28.524 -18.297)" fill="#e0e0e0"/>
        <path id="Trazado_659114" data-name="Trazado 659114" d="M282.974,192.6l-7.507-4.335c-.753-.435-1.364-.082-1.364.788v2.759a3.013,3.013,0,0,0,1.364,2.362l7.506,4.334c.753.435,1.364.082,1.364-.787v-2.759a3.014,3.014,0,0,0-1.364-2.362" transform="translate(-28.524 -19.572)" fill="#e0e0e0"/>
        <path id="Trazado_659115" data-name="Trazado 659115" d="M282.974,155.849l-7.507-4.335c-.753-.435-1.364-.082-1.364.788v2.759a3.012,3.012,0,0,0,1.364,2.362l7.506,4.334c.753.435,1.364.082,1.364-.787v-2.759a3.014,3.014,0,0,0-1.364-2.362" transform="translate(-28.524 -15.748)" fill="#e0e0e0"/>
        <path id="Trazado_659116" data-name="Trazado 659116" d="M.025,31.4a1.63,1.63,0,0,1,.064-.357A.082.082,0,0,1,.1,30.969a1.341,1.341,0,0,1,.089-.345,1.768,1.768,0,0,1,.229-.5.7.7,0,0,1,.128-.2.6.6,0,0,1,.114-.141,1.228,1.228,0,0,1,.255-.254L.943,29.5a1.747,1.747,0,0,1,.331-.191,2.82,2.82,0,0,1,2.613.332L201.465,143.406a8.607,8.607,0,0,1,3.887,6.73V292.061c0,.011,0,.021,0,.032v.849a2.659,2.659,0,0,1-1.4,2.35c-.056.037-.108.058-.161.095s-.128.076-.2.115a1.436,1.436,0,0,1-.331.115,2.2,2.2,0,0,1-.5.064,2.5,2.5,0,0,1-1.287-.369l-.1-.059-.008,0-3.7-2.139L3.887,181.485A8.586,8.586,0,0,1,0,174.755V31.887c0-.166.013-.332.025-.485" transform="translate(0 -3.03)" fill="#fafafa"/>
        <path id="Trazado_659117" data-name="Trazado 659117" d="M1.423,28.986a2.82,2.82,0,0,1,2.613.332L201.615,143.08a8.607,8.607,0,0,1,3.887,6.73v12.7l4.958-2.906V146.993a8.572,8.572,0,0,0-3.875-6.718L8.994,26.513a2.7,2.7,0,0,0-2.816-.229c-.7.421-3.926,2.269-4.755,2.7" transform="translate(-0.148 -2.704)" fill="#d2e1f1"/>
        <path id="Trazado_659118" data-name="Trazado 659118" d="M.01,31.861c.015-2.453,1.745-3.445,3.88-2.212L201.469,143.41a8.581,8.581,0,0,1,3.883,6.725l0,12.7L.01,44.605Z" transform="translate(-0.001 -3.03)" fill="#12263f"/>
        <path id="Trazado_659121" data-name="Trazado 659121" d="M25.386,48.217c1.211.7,2.194,2.779,2.194,4.645s-.983,2.811-2.194,2.111-2.194-2.778-2.194-4.644.982-2.811,2.194-2.112" transform="translate(-2.413 -4.994)" fill="#fafafa"/>
        <path id="Trazado_659122" data-name="Trazado 659122" d="M16.569,43.117c1.212.7,2.194,2.779,2.194,4.645s-.982,2.811-2.194,2.111-2.194-2.778-2.194-4.644.983-2.811,2.194-2.112" transform="translate(-1.496 -4.463)" fill="#fafafa"/>
        <path id="Trazado_659123" data-name="Trazado 659123" d="M7.753,38.018c1.212.7,2.194,2.779,2.194,4.645s-.982,2.811-2.194,2.112S5.559,42,5.559,40.13s.983-2.811,2.194-2.112" transform="translate(-0.578 -3.932)" fill="#fafafa"/>
        <path id="Trazado_659124" data-name="Trazado 659124" d="M227.629,310.486l.213-.12,4.1-2.362a4.116,4.116,0,0,0,2.028-3.01,4.3,4.3,0,0,0,.038-.566V175.119l-4.964,2.91v130.1a2.646,2.646,0,0,1-1.239,2.247c-.116.068-.174.108-.174.108" transform="translate(-23.688 -18.224)" fill="#e0e0e0"/>
        <path id="Trazado_659125" data-name="Trazado 659125" d="M180.3,205.727V194.465c0-7.315-5.219-16.239-11.657-19.933l-45.833-26.293c-6.438-3.694-11.657-.818-11.657,6.423v11.128" transform="translate(-11.567 -15.259)" fill="none" stroke="#455a64" stroke-linecap="round" stroke-linejoin="round" stroke-width="1"/>
        <line id="Línea_2413" data-name="Línea 2413" x1="167.41" y1="96.671" transform="translate(19.522 104.305)" fill="none" stroke="#455a64" stroke-linecap="round" stroke-linejoin="round" stroke-width="1"/>
        <path id="Trazado_659126" data-name="Trazado 659126" d="M83.659,149.315V137.51c0-6.985-5.213-15.651-11.644-19.356L21.79,89.215" transform="translate(-2.268 -9.284)" fill="none" stroke="#455a64" stroke-linecap="round" stroke-linejoin="round" stroke-width="1"/>
        <path id="Trazado_659127" data-name="Trazado 659127" d="M158.132,195.152v13.021c0,7.191-5.212,10.012-11.639,6.3L84.615,178.747C78.188,175.036,72.977,166.2,72.977,159V145.979" transform="translate(-7.594 -15.191)" fill="none" stroke="#455a64" stroke-linecap="round" stroke-linejoin="round" stroke-width="1"/>
        <path id="Trazado_659128" data-name="Trazado 659128" d="M63.724,143.439v13.025c0,7.193-5.211,10.017-11.638,6.306L21.921,145.355" transform="translate(-2.281 -14.927)" fill="none" stroke="#455a64" stroke-linecap="round" stroke-linejoin="round" stroke-width="1"/>
        <path id="Trazado_659129" data-name="Trazado 659129" d="M208.136,218.6c-2.412-1.392-4.367-.263-4.367,2.521a9.652,9.652,0,0,0,4.367,7.564c2.412,1.392,4.367.263,4.367-2.521a9.652,9.652,0,0,0-4.367-7.564" transform="translate(-21.205 -22.687)" fill="#27debf"/>
        <g id="Grupo_985852" data-name="Grupo 985852" transform="translate(15.155 98.665)" opacity="0.5">
          <g id="Grupo_985851" data-name="Grupo 985851">
            <g id="Grupo_985850" data-name="Grupo 985850" clip-path="url(#clip-path-10)">
              <path id="Trazado_659130" data-name="Trazado 659130" d="M21.283,110.722c-2.412-1.392-4.367-.263-4.367,2.521a9.652,9.652,0,0,0,4.367,7.564c2.412,1.392,4.367.263,4.367-2.521a9.652,9.652,0,0,0-4.367-7.564" transform="translate(-16.915 -110.125)" fill="#fff"/>
            </g>
          </g>
        </g>
        <path id="Trazado_659131" data-name="Trazado 659131" d="M149.237,157.4c-2.412-1.392-4.368-.263-4.368,2.521a9.653,9.653,0,0,0,4.368,7.564c2.412,1.392,4.367.263,4.367-2.521a9.652,9.652,0,0,0-4.367-7.564" transform="translate(-15.076 -16.317)" fill="#27debf"/>
        <path id="Trazado_659132" data-name="Trazado 659132" d="M187.826,206.876c-2.412-1.392-4.367-.263-4.367,2.521a9.652,9.652,0,0,0,4.367,7.564c2.412,1.392,4.367.263,4.367-2.521a9.652,9.652,0,0,0-4.367-7.564" transform="translate(-19.091 -21.466)" fill="#12263f"/>
        <path id="Trazado_659133" data-name="Trazado 659133" d="M110.647,162.317c-2.412-1.392-4.367-.263-4.367,2.521a9.652,9.652,0,0,0,4.367,7.564c2.412,1.392,4.367.263,4.367-2.521a9.652,9.652,0,0,0-4.367-7.564" transform="translate(-11.06 -16.829)" fill="#12263f"/>
        <g id="Grupo_985855" data-name="Grupo 985855" transform="translate(95.22 140.484)" opacity="0.35">
          <g id="Grupo_985854" data-name="Grupo 985854">
            <g id="Grupo_985853" data-name="Grupo 985853" clip-path="url(#clip-path-11)">
              <path id="Trazado_659134" data-name="Trazado 659134" d="M149.237,157.4c-2.412-1.392-4.368-.263-4.368,2.521a9.653,9.653,0,0,0,4.368,7.564c2.412,1.392,4.367.263,4.367-2.521a9.652,9.652,0,0,0-4.367-7.564" transform="translate(-110.296 -156.801)"/>
            </g>
          </g>
        </g>
        <path id="Trazado_659137" data-name="Trazado 659137" d="M90.337,150.591c-2.412-1.392-4.367-.263-4.367,2.521a9.652,9.652,0,0,0,4.367,7.564c2.412,1.392,4.367.263,4.367-2.521a9.652,9.652,0,0,0-4.367-7.564" transform="translate(-8.946 -15.609)" fill="#27debf"/>
        <path id="Trazado_659138" data-name="Trazado 659138" d="M70.027,111.665c-2.412-1.392-4.367-.263-4.367,2.521a9.652,9.652,0,0,0,4.367,7.564c2.412,1.392,4.367.263,4.367-2.521a9.652,9.652,0,0,0-4.367-7.564" transform="translate(-6.833 -11.558)" fill="#27debf"/>
        <path id="Trazado_659139" data-name="Trazado 659139" d="M45.655,97.594c-2.412-1.392-4.367-.263-4.367,2.521a9.652,9.652,0,0,0,4.367,7.564c2.412,1.392,4.367.263,4.367-2.521a9.652,9.652,0,0,0-4.367-7.564" transform="translate(-4.297 -10.094)" fill="#27debf"/>
        <path id="Trazado_659140" data-name="Trazado 659140" d="M21.283,83.522c-2.412-1.392-4.367-.263-4.367,2.521a9.652,9.652,0,0,0,4.367,7.564c2.412,1.392,4.367.263,4.367-2.521a9.652,9.652,0,0,0-4.367-7.564" transform="translate(-1.76 -8.63)" fill="#27debf"/>
        <g id="Grupo_985858" data-name="Grupo 985858" transform="translate(15.155 74.296)" opacity="0.15">
          <g id="Grupo_985857" data-name="Grupo 985857">
            <g id="Grupo_985856" data-name="Grupo 985856" clip-path="url(#clip-path-12)">
              <path id="Trazado_659141" data-name="Trazado 659141" d="M90.337,150.591c-2.412-1.392-4.367-.263-4.367,2.521a9.652,9.652,0,0,0,4.367,7.564c2.412,1.392,4.367.263,4.367-2.521a9.652,9.652,0,0,0-4.367-7.564" transform="translate(-24.101 -89.905)"/>
              <path id="Trazado_659142" data-name="Trazado 659142" d="M70.027,111.665c-2.412-1.392-4.367-.263-4.367,2.521a9.652,9.652,0,0,0,4.367,7.564c2.412,1.392,4.367.263,4.367-2.521a9.652,9.652,0,0,0-4.367-7.564" transform="translate(-21.988 -85.855)"/>
              <path id="Trazado_659143" data-name="Trazado 659143" d="M45.655,97.594c-2.412-1.392-4.367-.263-4.367,2.521a9.652,9.652,0,0,0,4.367,7.564c2.412,1.392,4.367.263,4.367-2.521a9.652,9.652,0,0,0-4.367-7.564" transform="translate(-19.451 -84.39)"/>
              <path id="Trazado_659144" data-name="Trazado 659144" d="M21.283,83.522c-2.412-1.392-4.367-.263-4.367,2.521a9.652,9.652,0,0,0,4.367,7.564c2.412,1.392,4.367.263,4.367-2.521a9.652,9.652,0,0,0-4.367-7.564" transform="translate(-16.915 -82.926)"/>
            </g>
          </g>
        </g>
        <path id="Trazado_659145" data-name="Trazado 659145" d="M167.516,195.15c-2.412-1.392-4.367-.263-4.367,2.521a9.652,9.652,0,0,0,4.367,7.564c2.412,1.392,4.367.263,4.367-2.521a9.652,9.652,0,0,0-4.367-7.564" transform="translate(-16.978 -20.246)" fill="#27debf"/>
        <path id="Trazado_659146" data-name="Trazado 659146" d="M118.772,196.089c-2.412-1.392-4.367-.263-4.367,2.521a9.652,9.652,0,0,0,4.367,7.564c2.412,1.392,4.367.263,4.367-2.521a9.652,9.652,0,0,0-4.367-7.564" transform="translate(-11.905 -20.344)" fill="#27debf"/>
        <path id="Trazado_659147" data-name="Trazado 659147" d="M69.929,138.9c-2.412-1.392-4.367-.263-4.368,2.521a9.653,9.653,0,0,0,4.368,7.564c2.412,1.392,4.367.263,4.367-2.521a9.652,9.652,0,0,0-4.367-7.564" transform="translate(-6.823 -14.392)" fill="#27debf"/>
        <path id="Trazado_659148" data-name="Trazado 659148" d="M21.282,139.879c-2.412-1.392-4.367-.263-4.367,2.521a9.652,9.652,0,0,0,4.367,7.564c2.412,1.392,4.367.263,4.367-2.521a9.652,9.652,0,0,0-4.367-7.564" transform="translate(-1.76 -14.494)" fill="#27debf"/>
        <path id="Trazado_659149" data-name="Trazado 659149" d="M45.655,153.951c-2.412-1.393-4.367-.264-4.367,2.52a9.652,9.652,0,0,0,4.367,7.565c2.412,1.392,4.367.263,4.367-2.522a9.652,9.652,0,0,0-4.367-7.564" transform="translate(-4.297 -15.959)" fill="#27debf"/>
        <g id="Grupo_985876" data-name="Grupo 985876" transform="translate(15.155 123.91)" opacity="0.5">
          <g id="Grupo_985875" data-name="Grupo 985875">
            <g id="Grupo_985874" data-name="Grupo 985874" clip-path="url(#clip-path-13)">
              <g id="Grupo_985861" data-name="Grupo 985861" transform="translate(131.015 50.397)" opacity="0.5">
                <g id="Grupo_985860" data-name="Grupo 985860">
                  <g id="Grupo_985859" data-name="Grupo 985859" clip-path="url(#clip-path-10)">
                    <path id="Trazado_659150" data-name="Trazado 659150" d="M167.516,195.15c-2.412-1.392-4.367-.263-4.367,2.521a9.652,9.652,0,0,0,4.367,7.564c2.412,1.392,4.367.263,4.367-2.521a9.652,9.652,0,0,0-4.367-7.564" transform="translate(-163.148 -194.553)" fill="#fff"/>
                  </g>
                </g>
              </g>
              <g id="Grupo_985864" data-name="Grupo 985864" transform="translate(87.344 51.239)" opacity="0.5">
                <g id="Grupo_985863" data-name="Grupo 985863">
                  <g id="Grupo_985862" data-name="Grupo 985862" clip-path="url(#clip-path-15)">
                    <path id="Trazado_659151" data-name="Trazado 659151" d="M118.772,196.089c-2.412-1.392-4.367-.263-4.367,2.521a9.652,9.652,0,0,0,4.367,7.564c2.412,1.392,4.367.263,4.367-2.521a9.652,9.652,0,0,0-4.367-7.564" transform="translate(-114.404 -195.492)" fill="#fff"/>
                  </g>
                </g>
              </g>
              <g id="Grupo_985867" data-name="Grupo 985867" transform="translate(43.585)" opacity="0.5">
                <g id="Grupo_985866" data-name="Grupo 985866">
                  <g id="Grupo_985865" data-name="Grupo 985865" clip-path="url(#clip-path-10)">
                    <path id="Trazado_659152" data-name="Trazado 659152" d="M69.929,138.9c-2.412-1.392-4.367-.263-4.368,2.521a9.653,9.653,0,0,0,4.368,7.564c2.412,1.392,4.367.263,4.367-2.521a9.652,9.652,0,0,0-4.367-7.564" transform="translate(-65.562 -138.302)" fill="#fff"/>
                  </g>
                </g>
              </g>
              <g id="Grupo_985870" data-name="Grupo 985870" transform="translate(0 0.879)" opacity="0.5">
                <g id="Grupo_985869" data-name="Grupo 985869">
                  <g id="Grupo_985868" data-name="Grupo 985868" clip-path="url(#clip-path-15)">
                    <path id="Trazado_659153" data-name="Trazado 659153" d="M21.282,139.879c-2.412-1.392-4.367-.263-4.367,2.521a9.652,9.652,0,0,0,4.367,7.564c2.412,1.392,4.367.263,4.367-2.521a9.652,9.652,0,0,0-4.367-7.564" transform="translate(-16.915 -139.283)" fill="#fff"/>
                  </g>
                </g>
              </g>
              <g id="Grupo_985873" data-name="Grupo 985873" transform="translate(21.836 13.486)" opacity="0.5">
                <g id="Grupo_985872" data-name="Grupo 985872">
                  <g id="Grupo_985871" data-name="Grupo 985871" clip-path="url(#clip-path-15)">
                    <path id="Trazado_659154" data-name="Trazado 659154" d="M45.655,153.951c-2.412-1.393-4.367-.264-4.367,2.52a9.652,9.652,0,0,0,4.367,7.565c2.412,1.392,4.367.263,4.367-2.522a9.652,9.652,0,0,0-4.367-7.564" transform="translate(-41.287 -153.354)" fill="#fff"/>
                  </g>
                </g>
              </g>
            </g>
          </g>
        </g>
        <path id="Trazado_659155" data-name="Trazado 659155" d="M211.013,292.038v-4.979a2.146,2.146,0,0,0-.969-1.68l-12.617-7.285c-.537-.309-.971-.058-.971.56v4.979a2.146,2.146,0,0,0,.969,1.68l12.618,7.285c.535.309.969.058.969-.56" transform="translate(-20.444 -28.926)" fill="#27debf"/>
        <path id="Trazado_659156" data-name="Trazado 659156" d="M189.311,276.776l-16.257-9.386c-.536-.309-.97-.09-.97.491a2.08,2.08,0,0,0,.97,1.61l16.257,9.386c.536.309.97.09.97-.49a2.08,2.08,0,0,0-.97-1.611" transform="translate(-17.908 -27.811)" fill="#e0e0e0"/>
        <path id="Trazado_659157" data-name="Trazado 659157" d="M158.207,261.551v-4.979a2.144,2.144,0,0,0-.97-1.68l-12.617-7.285c-.536-.309-.97-.058-.97.56v4.979a2.143,2.143,0,0,0,.969,1.68l12.617,7.285c.536.309.97.058.97-.56" transform="translate(-14.949 -25.753)" fill="#27debf"/>
        <g id="Grupo_985879" data-name="Grupo 985879" transform="translate(128.701 221.722)" opacity="0.35">
          <g id="Grupo_985878" data-name="Grupo 985878">
            <g id="Grupo_985877" data-name="Grupo 985877" clip-path="url(#clip-path-19)">
              <path id="Trazado_659158" data-name="Trazado 659158" d="M158.207,261.551v-4.979a2.144,2.144,0,0,0-.97-1.68l-12.617-7.285c-.536-.309-.97-.058-.97.56v4.979a2.143,2.143,0,0,0,.969,1.68l12.617,7.285c.536.309.97.058.97-.56" transform="translate(-143.65 -247.475)"/>
            </g>
          </g>
        </g>
        <path id="Trazado_659159" data-name="Trazado 659159" d="M136.5,246.288,120.247,236.9c-.536-.309-.969-.09-.969.491a2.078,2.078,0,0,0,.969,1.61l16.257,9.386c.536.309.97.09.97-.49a2.08,2.08,0,0,0-.97-1.611" transform="translate(-12.413 -24.638)" fill="#e0e0e0"/>
        <path id="Trazado_659160" data-name="Trazado 659160" d="M105.4,231.063v-4.979a2.144,2.144,0,0,0-.97-1.68L91.813,217.12c-.535-.309-.969-.058-.969.56v4.979a2.143,2.143,0,0,0,.969,1.68l12.617,7.285c.536.309.97.058.97-.56" transform="translate(-9.454 -22.581)" fill="#27debf"/>
        <g id="Grupo_985882" data-name="Grupo 985882" transform="translate(81.39 194.406)" opacity="0.5">
          <g id="Grupo_985881" data-name="Grupo 985881">
            <g id="Grupo_985880" data-name="Grupo 985880" clip-path="url(#clip-path-20)">
              <path id="Trazado_659161" data-name="Trazado 659161" d="M105.4,231.063v-4.979a2.144,2.144,0,0,0-.97-1.68L91.813,217.12c-.535-.309-.969-.058-.969.56v4.979a2.143,2.143,0,0,0,.969,1.68l12.617,7.285c.536.309.97.058.97-.56" transform="translate(-90.844 -216.987)" fill="#fff"/>
            </g>
          </g>
        </g>
        <path id="Trazado_659162" data-name="Trazado 659162" d="M83.7,215.8l-16.257-9.386c-.536-.309-.97-.09-.97.491a2.08,2.08,0,0,0,.97,1.61L83.7,217.9c.536.309.97.09.97-.49a2.08,2.08,0,0,0-.97-1.611" transform="translate(-6.917 -21.466)" fill="#e0e0e0"/>
        <path id="Trazado_659163" data-name="Trazado 659163" d="M52.594,200.575V195.6a2.146,2.146,0,0,0-.969-1.68l-12.617-7.285c-.536-.309-.97-.058-.97.56v4.979a2.142,2.142,0,0,0,.969,1.68l12.617,7.285c.536.309.97.058.97-.56" transform="translate(-3.958 -19.408)" fill="#27debf"/>
        <g id="Grupo_985885" data-name="Grupo 985885" transform="translate(34.079 167.091)" opacity="0.5">
          <g id="Grupo_985884" data-name="Grupo 985884">
            <g id="Grupo_985883" data-name="Grupo 985883" clip-path="url(#clip-path-21)">
              <path id="Trazado_659164" data-name="Trazado 659164" d="M52.594,200.575V195.6a2.146,2.146,0,0,0-.969-1.68l-12.617-7.285c-.536-.309-.97-.058-.97.56v4.979a2.142,2.142,0,0,0,.969,1.68l12.617,7.285c.536.309.97.058.97-.56" transform="translate(-38.037 -186.499)" fill="#fff"/>
            </g>
          </g>
        </g>
        <path id="Trazado_659165" data-name="Trazado 659165" d="M30.892,185.313l-16.257-9.386c-.536-.309-.97-.09-.97.491a2.08,2.08,0,0,0,.97,1.61l16.257,9.386c.536.309.97.09.97-.49a2.08,2.08,0,0,0-.97-1.611" transform="translate(-1.422 -18.293)" fill="#e0e0e0"/>
      </g>
    </g>
  </g>
</svg>
